STARTFONT 2.3
FONT -FontForge-Indie Flower-Book-R-Normal--9-90-72-72-P-41-ISO10646-1
SIZE 9 72 72  2
FONTBOUNDINGBOX 11 14 -1 -5
COMMENT "Generated by fontforge, http://fontforge.sourceforge.net"
COMMENT "Copyright (c) 2010, Kimberly Geswein (kimberlygeswein.com)"
STARTPROPERTIES 40
FOUNDRY "FontForge"
FAMILY_NAME "Indie Flower"
WEIGHT_NAME "Book"
SLANT "R"
SETWIDTH_NAME "Normal"
ADD_STYLE_NAME ""
PIXEL_SIZE 9
POINT_SIZE 90
RESOLUTION_X 72
RESOLUTION_Y 72
SPACING "P"
AVERAGE_WIDTH 41
CHARSET_REGISTRY "ISO10646"
CHARSET_ENCODING "1"
FONTNAME_REGISTRY ""
CHARSET_COLLECTIONS "ISO8859-2 ISO8859-9 ISO8859-4 ISO10646-1"
BITS_PER_PIXEL 2
FONT_NAME "IndieFlower"
FACE_NAME "Indie Flower"
COPYRIGHT "Copyright (c) 2010, Kimberly Geswein (kimberlygeswein.com)"
FONT_VERSION "1.001 2010"
FONT_ASCENT 7
FONT_DESCENT 2
UNDERLINE_POSITION -1
UNDERLINE_THICKNESS 1
X_HEIGHT 3
CAP_HEIGHT 4
RAW_ASCENT 799
RAW_DESCENT 200
NORM_SPACE 3
RELATIVE_WEIGHT 40
RELATIVE_SETWIDTH 50
SUPERSCRIPT_X 0
SUPERSCRIPT_Y 4
SUPERSCRIPT_SIZE 5
SUBSCRIPT_X 0
SUBSCRIPT_Y 1
SUBSCRIPT_SIZE 5
AVG_LOWERCASE_WIDTH 41
AVG_UPPERCASE_WIDTH 48
ENDPROPERTIES
CHARS 356
STARTCHAR space
ENCODING 32
SWIDTH 375 0
DWIDTH 3 0
BBX 1 1 0 0
BITMAP
00
ENDCHAR
STARTCHAR exclam
ENCODING 33
SWIDTH 149 0
DWIDTH 1 0
BBX 1 8 0 0
BITMAP
40
40
40
40
40
40
00
80
ENDCHAR
STARTCHAR quotedbl
ENCODING 34
SWIDTH 234 0
DWIDTH 2 0
BBX 2 3 0 4
BITMAP
50
A0
50
ENDCHAR
STARTCHAR numbersign
ENCODING 35
SWIDTH 768 0
DWIDTH 7 0
BBX 7 4 0 0
BITMAP
0590
6A94
1A94
0140
ENDCHAR
STARTCHAR dollar
ENCODING 36
SWIDTH 581 0
DWIDTH 5 0
BBX 5 8 0 0
BITMAP
0500
1A00
1900
0A00
0640
4940
1D80
0900
ENDCHAR
STARTCHAR percent
ENCODING 37
SWIDTH 636 0
DWIDTH 6 0
BBX 6 5 0 0
BITMAP
6140
9500
1480
1510
1180
ENDCHAR
STARTCHAR ampersand
ENCODING 38
SWIDTH 457 0
DWIDTH 4 0
BBX 4 6 0 0
BITMAP
24
24
25
68
48
A4
ENDCHAR
STARTCHAR quotesingle
ENCODING 39
SWIDTH 102 0
DWIDTH 1 0
BBX 1 3 0 4
BITMAP
40
80
40
ENDCHAR
STARTCHAR parenleft
ENCODING 40
SWIDTH 421 0
DWIDTH 4 0
BBX 4 6 0 -1
BITMAP
15
10
80
80
50
10
ENDCHAR
STARTCHAR parenright
ENCODING 41
SWIDTH 290 0
DWIDTH 3 0
BBX 3 7 0 -1
BITMAP
40
20
14
04
10
50
40
ENDCHAR
STARTCHAR asterisk
ENCODING 42
SWIDTH 412 0
DWIDTH 4 0
BBX 4 4 0 2
BITMAP
01
78
68
48
ENDCHAR
STARTCHAR plus
ENCODING 43
SWIDTH 459 0
DWIDTH 4 0
BBX 4 4 0 0
BITMAP
10
15
69
04
ENDCHAR
STARTCHAR comma
ENCODING 44
SWIDTH 130 0
DWIDTH 1 0
BBX 1 3 0 -2
BITMAP
80
80
40
ENDCHAR
STARTCHAR hyphen
ENCODING 45
SWIDTH 375 0
DWIDTH 3 0
BBX 3 1 0 2
BITMAP
68
ENDCHAR
STARTCHAR period
ENCODING 46
SWIDTH 204 0
DWIDTH 2 0
BBX 2 2 0 0
BITMAP
50
50
ENDCHAR
STARTCHAR slash
ENCODING 47
SWIDTH 309 0
DWIDTH 3 0
BBX 3 7 0 0
BITMAP
04
04
10
20
10
40
40
ENDCHAR
STARTCHAR zero
ENCODING 48
SWIDTH 430 0
DWIDTH 4 0
BBX 4 4 0 0
BITMAP
28
41
41
68
ENDCHAR
STARTCHAR one
ENCODING 49
SWIDTH 318 0
DWIDTH 3 0
BBX 3 5 0 0
BITMAP
08
28
64
14
10
ENDCHAR
STARTCHAR two
ENCODING 50
SWIDTH 497 0
DWIDTH 4 0
BBX 4 5 0 0
BITMAP
09
02
02
41
AA
ENDCHAR
STARTCHAR three
ENCODING 51
SWIDTH 430 0
DWIDTH 4 0
BBX 4 5 0 0
BITMAP
54
08
28
41
69
ENDCHAR
STARTCHAR four
ENCODING 52
SWIDTH 412 0
DWIDTH 4 0
BBX 4 5 0 0
BITMAP
80
41
89
25
01
ENDCHAR
STARTCHAR five
ENCODING 53
SWIDTH 571 0
DWIDTH 5 0
BBX 5 6 0 0
BITMAP
0A40
1000
2900
0100
4140
6A00
ENDCHAR
STARTCHAR six
ENCODING 54
SWIDTH 440 0
DWIDTH 4 0
BBX 4 6 0 0
BITMAP
05
15
50
95
42
69
ENDCHAR
STARTCHAR seven
ENCODING 55
SWIDTH 412 0
DWIDTH 4 0
BBX 4 5 0 0
BITMAP
54
04
19
04
14
ENDCHAR
STARTCHAR eight
ENCODING 56
SWIDTH 375 0
DWIDTH 3 0
BBX 3 5 0 0
BITMAP
54
54
64
84
18
ENDCHAR
STARTCHAR nine
ENCODING 57
SWIDTH 300 0
DWIDTH 3 0
BBX 3 5 0 0
BITMAP
54
88
54
04
04
ENDCHAR
STARTCHAR colon
ENCODING 58
SWIDTH 84 0
DWIDTH 1 0
BBX 1 1 0 2
BITMAP
40
ENDCHAR
STARTCHAR semicolon
ENCODING 59
SWIDTH 128 0
DWIDTH 1 0
BBX 1 6 0 -2
BITMAP
40
00
00
40
80
40
ENDCHAR
STARTCHAR less
ENCODING 60
SWIDTH 487 0
DWIDTH 4 0
BBX 4 4 0 0
BITMAP
01
18
50
69
ENDCHAR
STARTCHAR equal
ENCODING 61
SWIDTH 524 0
DWIDTH 5 0
BBX 4 3 0 1
BITMAP
55
00
6A
ENDCHAR
STARTCHAR greater
ENCODING 62
SWIDTH 403 0
DWIDTH 4 0
BBX 4 4 0 0
BITMAP
64
05
18
50
ENDCHAR
STARTCHAR question
ENCODING 63
SWIDTH 272 0
DWIDTH 2 0
BBX 3 8 0 0
BITMAP
50
14
10
20
60
10
00
10
ENDCHAR
STARTCHAR at
ENCODING 64
SWIDTH 815 0
DWIDTH 7 0
BBX 7 8 0 0
BITMAP
1990
5014
4148
4454
4498
59A4
2000
0664
ENDCHAR
STARTCHAR A
ENCODING 65
SWIDTH 562 0
DWIDTH 5 0
BBX 5 7 0 0
BITMAP
1500
4100
4040
4080
9580
4080
4080
ENDCHAR
STARTCHAR B
ENCODING 66
SWIDTH 741 0
DWIDTH 7 0
BBX 7 7 0 0
BITMAP
0400
6940
0440
0A80
0820
0814
0AA4
ENDCHAR
STARTCHAR C
ENCODING 67
SWIDTH 515 0
DWIDTH 5 0
BBX 4 6 0 0
BITMAP
09
10
40
40
40
6A
ENDCHAR
STARTCHAR D
ENCODING 68
SWIDTH 741 0
DWIDTH 7 0
BBX 7 6 0 0
BITMAP
6900
0590
0120
0104
0214
0690
ENDCHAR
STARTCHAR E
ENCODING 69
SWIDTH 524 0
DWIDTH 5 0
BBX 4 6 0 0
BITMAP
65
80
95
80
40
6A
ENDCHAR
STARTCHAR F
ENCODING 70
SWIDTH 514 0
DWIDTH 5 0
BBX 6 6 0 0
BITMAP
5500
6550
1000
6900
1000
1400
ENDCHAR
STARTCHAR G
ENCODING 71
SWIDTH 571 0
DWIDTH 5 0
BBX 5 6 0 -1
BITMAP
0540
1000
4540
4080
6580
0040
ENDCHAR
STARTCHAR H
ENCODING 72
SWIDTH 524 0
DWIDTH 5 0
BBX 5 6 0 0
BITMAP
4100
4100
4600
A540
5140
4040
ENDCHAR
STARTCHAR I
ENCODING 73
SWIDTH 167 0
DWIDTH 2 0
BBX 2 5 0 0
BITMAP
40
40
40
50
10
ENDCHAR
STARTCHAR J
ENCODING 74
SWIDTH 439 0
DWIDTH 4 0
BBX 4 6 0 0
BITMAP
01
02
02
41
11
19
ENDCHAR
STARTCHAR K
ENCODING 75
SWIDTH 468 0
DWIDTH 4 0
BBX 4 5 0 0
BITMAP
54
60
90
54
46
ENDCHAR
STARTCHAR L
ENCODING 76
SWIDTH 346 0
DWIDTH 3 0
BBX 3 5 0 0
BITMAP
40
80
80
40
64
ENDCHAR
STARTCHAR M
ENCODING 77
SWIDTH 534 0
DWIDTH 5 0
BBX 5 6 0 0
BITMAP
4000
9240
5A00
4140
4140
4080
ENDCHAR
STARTCHAR N
ENCODING 78
SWIDTH 609 0
DWIDTH 5 0
BBX 6 5 0 0
BITMAP
4040
8080
9040
5450
8640
ENDCHAR
STARTCHAR O
ENCODING 79
SWIDTH 609 0
DWIDTH 5 0
BBX 5 5 0 0
BITMAP
1400
5600
4080
4040
2540
ENDCHAR
STARTCHAR P
ENCODING 80
SWIDTH 627 0
DWIDTH 6 0
BBX 6 6 0 0
BITMAP
1400
4580
0410
0980
0900
0400
ENDCHAR
STARTCHAR Q
ENCODING 81
SWIDTH 642 0
DWIDTH 6 0
BBX 6 6 0 -1
BITMAP
1900
4240
4050
4110
2B80
0050
ENDCHAR
STARTCHAR R
ENCODING 82
SWIDTH 579 0
DWIDTH 5 0
BBX 5 7 0 -1
BITMAP
5900
4140
2640
2400
1800
1240
0040
ENDCHAR
STARTCHAR S
ENCODING 83
SWIDTH 627 0
DWIDTH 6 0
BBX 6 6 0 0
BITMAP
0500
1040
1400
0240
8050
1580
ENDCHAR
STARTCHAR T
ENCODING 84
SWIDTH 581 0
DWIDTH 5 0
BBX 6 5 0 0
BITMAP
5A50
0100
0100
0200
0200
ENDCHAR
STARTCHAR U
ENCODING 85
SWIDTH 571 0
DWIDTH 5 0
BBX 5 5 0 0
BITMAP
4100
4140
4040
4180
2940
ENDCHAR
STARTCHAR V
ENCODING 86
SWIDTH 421 0
DWIDTH 4 0
BBX 4 5 0 0
BITMAP
41
81
25
28
08
ENDCHAR
STARTCHAR W
ENCODING 87
SWIDTH 703 0
DWIDTH 6 0
BBX 6 4 0 0
BITMAP
8020
8420
8910
6590
ENDCHAR
STARTCHAR X
ENCODING 88
SWIDTH 534 0
DWIDTH 5 0
BBX 5 6 0 -1
BITMAP
0040
2100
1800
2800
4100
4000
ENDCHAR
STARTCHAR Y
ENCODING 89
SWIDTH 403 0
DWIDTH 4 0
BBX 4 6 0 0
BITMAP
41
55
18
08
04
14
ENDCHAR
STARTCHAR Z
ENCODING 90
SWIDTH 571 0
DWIDTH 5 0
BBX 5 6 0 0
BITMAP
5400
0100
0100
1A40
0400
1A80
ENDCHAR
STARTCHAR bracketleft
ENCODING 91
SWIDTH 477 0
DWIDTH 4 0
BBX 5 8 0 -1
BITMAP
0100
6400
8000
4000
1000
1000
1000
2540
ENDCHAR
STARTCHAR backslash
ENCODING 92
SWIDTH 430 0
DWIDTH 4 0
BBX 4 5 0 0
BITMAP
40
60
14
08
02
ENDCHAR
STARTCHAR bracketright
ENCODING 93
SWIDTH 430 0
DWIDTH 4 0
BBX 4 9 0 -1
BITMAP
54
18
01
01
01
01
01
02
6A
ENDCHAR
STARTCHAR asciicircum
ENCODING 94
SWIDTH 375 0
DWIDTH 3 0
BBX 2 2 1 5
BITMAP
40
A0
ENDCHAR
STARTCHAR underscore
ENCODING 95
SWIDTH 656 0
DWIDTH 6 0
BBX 6 1 0 0
BITMAP
5A90
ENDCHAR
STARTCHAR grave
ENCODING 96
SWIDTH 172 0
DWIDTH 2 0
BBX 1 1 0 4
BITMAP
40
ENDCHAR
STARTCHAR a
ENCODING 97
SWIDTH 505 0
DWIDTH 5 0
BBX 5 5 0 0
BITMAP
1400
0500
6600
4140
6A00
ENDCHAR
STARTCHAR b
ENCODING 98
SWIDTH 497 0
DWIDTH 4 0
BBX 5 6 0 0
BITMAP
4000
8000
4000
6900
4140
2A00
ENDCHAR
STARTCHAR c
ENCODING 99
SWIDTH 449 0
DWIDTH 4 0
BBX 4 4 0 0
BITMAP
58
80
80
65
ENDCHAR
STARTCHAR d
ENCODING 100
SWIDTH 524 0
DWIDTH 5 0
BBX 5 7 0 0
BITMAP
0100
0200
0200
6A40
8240
8240
6840
ENDCHAR
STARTCHAR e
ENCODING 101
SWIDTH 515 0
DWIDTH 5 0
BBX 4 5 0 0
BITMAP
14
45
98
40
29
ENDCHAR
STARTCHAR f
ENCODING 102
SWIDTH 376 0
DWIDTH 3 0
BBX 4 7 0 0
BITMAP
04
26
10
10
68
20
08
ENDCHAR
STARTCHAR g
ENCODING 103
SWIDTH 366 0
DWIDTH 3 0
BBX 5 9 -1 -5
BITMAP
0500
1100
2200
1A40
0140
0140
4140
6600
0500
ENDCHAR
STARTCHAR h
ENCODING 104
SWIDTH 427 0
DWIDTH 4 0
BBX 4 6 0 0
BITMAP
40
80
A8
41
41
41
ENDCHAR
STARTCHAR i
ENCODING 105
SWIDTH 174 0
DWIDTH 2 0
BBX 2 6 0 0
BITMAP
40
00
40
40
50
50
ENDCHAR
STARTCHAR j
ENCODING 106
SWIDTH 200 0
DWIDTH 2 0
BBX 3 9 -1 -4
BITMAP
10
00
14
08
08
08
48
84
28
ENDCHAR
STARTCHAR k
ENCODING 107
SWIDTH 403 0
DWIDTH 4 0
BBX 4 5 0 0
BITMAP
40
44
90
50
59
ENDCHAR
STARTCHAR l
ENCODING 108
SWIDTH 120 0
DWIDTH 1 0
BBX 1 5 0 0
BITMAP
40
80
80
80
40
ENDCHAR
STARTCHAR m
ENCODING 109
SWIDTH 750 0
DWIDTH 7 0
BBX 7 4 0 0
BITMAP
6490
8614
8204
4104
ENDCHAR
STARTCHAR n
ENCODING 110
SWIDTH 459 0
DWIDTH 4 0
BBX 4 4 0 0
BITMAP
68
82
82
42
ENDCHAR
STARTCHAR o
ENCODING 111
SWIDTH 487 0
DWIDTH 4 0
BBX 4 4 0 0
BITMAP
29
41
42
69
ENDCHAR
STARTCHAR p
ENCODING 112
SWIDTH 520 0
DWIDTH 5 0
BBX 5 6 0 -3
BITMAP
6600
8040
9A00
9000
5000
1000
ENDCHAR
STARTCHAR q
ENCODING 113
SWIDTH 412 0
DWIDTH 4 0
BBX 4 8 0 -3
BITMAP
14
55
45
45
68
04
05
01
ENDCHAR
STARTCHAR r
ENCODING 114
SWIDTH 346 0
DWIDTH 3 0
BBX 3 4 0 0
BITMAP
98
80
80
50
ENDCHAR
STARTCHAR s
ENCODING 115
SWIDTH 514 0
DWIDTH 5 0
BBX 5 4 0 0
BITMAP
5800
5400
0240
6600
ENDCHAR
STARTCHAR t
ENCODING 116
SWIDTH 328 0
DWIDTH 3 0
BBX 3 6 0 0
BITMAP
20
20
64
20
20
10
ENDCHAR
STARTCHAR u
ENCODING 117
SWIDTH 501 0
DWIDTH 5 0
BBX 5 4 0 0
BITMAP
4100
4200
4200
2940
ENDCHAR
STARTCHAR v
ENCODING 118
SWIDTH 389 0
DWIDTH 4 0
BBX 3 3 0 0
BITMAP
84
18
24
ENDCHAR
STARTCHAR w
ENCODING 119
SWIDTH 656 0
DWIDTH 6 0
BBX 6 4 0 0
BITMAP
4000
4510
4520
6A90
ENDCHAR
STARTCHAR x
ENCODING 120
SWIDTH 448 0
DWIDTH 4 0
BBX 4 5 0 -1
BITMAP
41
55
24
45
01
ENDCHAR
STARTCHAR y
ENCODING 121
SWIDTH 487 0
DWIDTH 4 0
BBX 5 9 0 -5
BITMAP
4100
4100
4200
1940
0140
0140
4100
6600
0400
ENDCHAR
STARTCHAR z
ENCODING 122
SWIDTH 459 0
DWIDTH 4 0
BBX 4 5 0 0
BITMAP
54
04
58
20
29
ENDCHAR
STARTCHAR braceleft
ENCODING 123
SWIDTH 393 0
DWIDTH 4 0
BBX 4 9 0 -1
BITMAP
24
80
40
64
68
08
20
40
25
ENDCHAR
STARTCHAR bar
ENCODING 124
SWIDTH 149 0
DWIDTH 1 0
BBX 1 6 0 0
BITMAP
40
40
40
40
40
40
ENDCHAR
STARTCHAR braceright
ENCODING 125
SWIDTH 440 0
DWIDTH 4 0
BBX 4 11 0 -2
BITMAP
54
45
08
10
24
20
14
04
01
01
99
ENDCHAR
STARTCHAR asciitilde
ENCODING 126
SWIDTH 402 0
DWIDTH 4 0
BBX 3 1 0 4
BITMAP
54
ENDCHAR
STARTCHAR nonbreakingspace
ENCODING 160
SWIDTH 375 0
DWIDTH 3 0
BBX 1 1 0 0
BITMAP
00
ENDCHAR
STARTCHAR exclamdown
ENCODING 161
SWIDTH 149 0
DWIDTH 1 0
BBX 1 6 0 0
BITMAP
40
00
40
40
40
40
ENDCHAR
STARTCHAR cent
ENCODING 162
SWIDTH 449 0
DWIDTH 4 0
BBX 4 6 0 -1
BITMAP
10
68
84
84
69
04
ENDCHAR
STARTCHAR sterling
ENCODING 163
SWIDTH 758 0
DWIDTH 7 0
BBX 7 7 0 0
BITMAP
0050
0144
0100
1A50
0100
0800
BA40
ENDCHAR
STARTCHAR currency
ENCODING 164
SWIDTH 618 0
DWIDTH 6 0
BBX 5 5 0 0
BITMAP
4540
2580
1040
2540
1440
ENDCHAR
STARTCHAR yen
ENCODING 165
SWIDTH 389 0
DWIDTH 4 0
BBX 4 7 0 0
BITMAP
41
55
18
14
64
64
20
ENDCHAR
STARTCHAR brokenbar
ENCODING 166
SWIDTH 117 0
DWIDTH 1 0
BBX 1 5 0 0
BITMAP
40
40
40
80
40
ENDCHAR
STARTCHAR section
ENCODING 167
SWIDTH 514 0
DWIDTH 5 0
BBX 5 6 0 0
BITMAP
6900
5100
5540
5540
0640
6600
ENDCHAR
STARTCHAR dieresis
ENCODING 168
SWIDTH 397 0
DWIDTH 4 0
BBX 3 1 0 4
BITMAP
58
ENDCHAR
STARTCHAR copyright
ENCODING 169
SWIDTH 667 0
DWIDTH 6 0
BBX 6 5 0 0
BITMAP
1640
4650
5010
5520
2A80
ENDCHAR
STARTCHAR ordfeminine
ENCODING 170
SWIDTH 266 0
DWIDTH 2 0
BBX 2 2 0 2
BITMAP
50
50
ENDCHAR
STARTCHAR guillemotleft
ENCODING 171
SWIDTH 755 0
DWIDTH 7 0
BBX 6 4 0 0
BITMAP
0150
1A40
5A50
6910
ENDCHAR
STARTCHAR logicalnot
ENCODING 172
SWIDTH 369 0
DWIDTH 3 0
BBX 3 2 0 2
BITMAP
58
04
ENDCHAR
STARTCHAR hyphen_
ENCODING 173
SWIDTH 375 0
DWIDTH 3 0
BBX 3 1 0 2
BITMAP
68
ENDCHAR
STARTCHAR registered
ENCODING 174
SWIDTH 708 0
DWIDTH 6 0
BBX 6 5 0 0
BITMAP
1680
5550
4910
5520
1980
ENDCHAR
STARTCHAR macron
ENCODING 175
SWIDTH 287 0
DWIDTH 3 0
BBX 3 1 0 4
BITMAP
64
ENDCHAR
STARTCHAR degree
ENCODING 176
SWIDTH 254 0
DWIDTH 2 0
BBX 2 3 0 3
BITMAP
50
50
50
ENDCHAR
STARTCHAR plusminus
ENCODING 177
SWIDTH 459 0
DWIDTH 4 0
BBX 4 4 0 0
BITMAP
10
69
04
59
ENDCHAR
STARTCHAR twosuperior
ENCODING 178
SWIDTH 296 0
DWIDTH 3 0
BBX 2 3 0 2
BITMAP
10
10
A0
ENDCHAR
STARTCHAR threesuperior
ENCODING 179
SWIDTH 204 0
DWIDTH 2 0
BBX 2 3 0 2
BITMAP
50
50
50
ENDCHAR
STARTCHAR acute
ENCODING 180
SWIDTH 180 0
DWIDTH 2 0
BBX 2 2 0 3
BITMAP
50
40
ENDCHAR
STARTCHAR mu
ENCODING 181
SWIDTH 501 0
DWIDTH 5 0
BBX 5 5 0 -1
BITMAP
4100
8200
8700
A940
4000
ENDCHAR
STARTCHAR paragraph
ENCODING 182
SWIDTH 413 0
DWIDTH 4 0
BBX 4 5 0 0
BITMAP
28
B9
69
09
09
ENDCHAR
STARTCHAR periodcentered
ENCODING 183
SWIDTH 212 0
DWIDTH 2 0
BBX 2 2 0 1
BITMAP
50
40
ENDCHAR
STARTCHAR cedilla
ENCODING 184
SWIDTH 445 0
DWIDTH 4 0
BBX 3 3 1 -3
BITMAP
40
14
54
ENDCHAR
STARTCHAR onesuperior
ENCODING 185
SWIDTH 197 0
DWIDTH 2 0
BBX 2 3 0 2
BITMAP
10
50
10
ENDCHAR
STARTCHAR ordmasculine
ENCODING 186
SWIDTH 254 0
DWIDTH 2 0
BBX 2 3 0 3
BITMAP
50
50
50
ENDCHAR
STARTCHAR guillemotright
ENCODING 187
SWIDTH 659 0
DWIDTH 6 0
BBX 6 5 0 0
BITMAP
0400
6640
0550
1940
5400
ENDCHAR
STARTCHAR onequarter
ENCODING 188
SWIDTH 626 0
DWIDTH 6 0
BBX 5 7 0 0
BITMAP
0400
2400
5400
1400
1500
1180
1040
ENDCHAR
STARTCHAR onehalf
ENCODING 189
SWIDTH 566 0
DWIDTH 5 0
BBX 5 6 0 0
BITMAP
1400
6400
5500
2440
1040
1A40
ENDCHAR
STARTCHAR threequarters
ENCODING 190
SWIDTH 566 0
DWIDTH 5 0
BBX 5 6 0 -1
BITMAP
5400
5500
5840
0580
1040
1000
ENDCHAR
STARTCHAR questiondown
ENCODING 191
SWIDTH 272 0
DWIDTH 2 0
BBX 3 7 0 0
BITMAP
40
00
50
20
80
80
54
ENDCHAR
STARTCHAR Agrave
ENCODING 192
SWIDTH 562 0
DWIDTH 5 0
BBX 5 8 0 0
BITMAP
0800
1500
4100
4040
4080
9580
4080
4080
ENDCHAR
STARTCHAR Aacute
ENCODING 193
SWIDTH 562 0
DWIDTH 5 0
BBX 5 8 0 0
BITMAP
1400
2500
4100
4040
4080
9580
4080
4080
ENDCHAR
STARTCHAR Acircumflex
ENCODING 194
SWIDTH 562 0
DWIDTH 5 0
BBX 5 9 0 0
BITMAP
0400
1900
2500
4100
4040
4080
9580
4080
4080
ENDCHAR
STARTCHAR Atilde
ENCODING 195
SWIDTH 562 0
DWIDTH 5 0
BBX 5 8 0 0
BITMAP
1500
1500
4100
4040
4080
9580
4080
4080
ENDCHAR
STARTCHAR Adieresis
ENCODING 196
SWIDTH 562 0
DWIDTH 5 0
BBX 5 8 0 0
BITMAP
1500
1500
4100
4040
4080
9580
4080
4080
ENDCHAR
STARTCHAR Aring
ENCODING 197
SWIDTH 562 0
DWIDTH 5 0
BBX 5 8 0 0
BITMAP
1400
1900
4100
4040
4080
9580
4080
4080
ENDCHAR
STARTCHAR AE
ENCODING 198
SWIDTH 960 0
DWIDTH 9 0
BBX 9 7 0 0
BITMAP
150000
416500
40C000
40D500
958000
408000
40AA40
ENDCHAR
STARTCHAR Ccedilla
ENCODING 199
SWIDTH 515 0
DWIDTH 5 0
BBX 4 9 0 -3
BITMAP
09
10
40
40
40
6A
10
05
15
ENDCHAR
STARTCHAR Egrave
ENCODING 200
SWIDTH 524 0
DWIDTH 5 0
BBX 4 7 0 0
BITMAP
04
65
80
95
80
40
6A
ENDCHAR
STARTCHAR Eacute
ENCODING 201
SWIDTH 524 0
DWIDTH 5 0
BBX 4 7 0 0
BITMAP
04
65
80
95
80
40
6A
ENDCHAR
STARTCHAR Ecircumflex
ENCODING 202
SWIDTH 524 0
DWIDTH 5 0
BBX 4 8 0 0
BITMAP
04
19
66
80
95
80
40
6A
ENDCHAR
STARTCHAR Edieresis
ENCODING 203
SWIDTH 524 0
DWIDTH 5 0
BBX 4 7 0 0
BITMAP
15
65
80
95
80
40
6A
ENDCHAR
STARTCHAR Igrave
ENCODING 204
SWIDTH 167 0
DWIDTH 2 0
BBX 2 7 0 0
BITMAP
80
00
40
40
40
50
10
ENDCHAR
STARTCHAR Iacute
ENCODING 205
SWIDTH 167 0
DWIDTH 2 0
BBX 2 7 0 0
BITMAP
40
00
40
40
40
50
10
ENDCHAR
STARTCHAR Icircumflex
ENCODING 206
SWIDTH 167 0
DWIDTH 2 0
BBX 2 8 0 0
BITMAP
40
A0
00
40
40
40
50
10
ENDCHAR
STARTCHAR Idieresis
ENCODING 207
SWIDTH 167 0
DWIDTH 2 0
BBX 3 6 -1 0
BITMAP
94
10
10
10
14
04
ENDCHAR
STARTCHAR Eth
ENCODING 208
SWIDTH 741 0
DWIDTH 7 0
BBX 7 6 0 0
BITMAP
6900
0590
0560
0644
0214
0690
ENDCHAR
STARTCHAR Ntilde
ENCODING 209
SWIDTH 609 0
DWIDTH 5 0
BBX 6 6 0 0
BITMAP
1500
4040
8080
9040
5450
8640
ENDCHAR
STARTCHAR Ograve
ENCODING 210
SWIDTH 609 0
DWIDTH 5 0
BBX 5 6 0 0
BITMAP
0500
1400
5600
4080
4040
2540
ENDCHAR
STARTCHAR Oacute
ENCODING 211
SWIDTH 609 0
DWIDTH 5 0
BBX 5 6 0 0
BITMAP
0400
1400
5600
4080
4040
2540
ENDCHAR
STARTCHAR Ocircumflex
ENCODING 212
SWIDTH 609 0
DWIDTH 5 0
BBX 5 7 0 0
BITMAP
0400
2800
1400
5600
4080
4040
2540
ENDCHAR
STARTCHAR Otilde
ENCODING 213
SWIDTH 609 0
DWIDTH 5 0
BBX 5 6 0 0
BITMAP
1500
1400
5600
4080
4040
2540
ENDCHAR
STARTCHAR Odieresis
ENCODING 214
SWIDTH 609 0
DWIDTH 5 0
BBX 5 6 0 0
BITMAP
1600
1400
5600
4080
4040
2540
ENDCHAR
STARTCHAR multiply
ENCODING 215
SWIDTH 448 0
DWIDTH 4 0
BBX 3 3 0 0
BITMAP
54
24
04
ENDCHAR
STARTCHAR Oslash
ENCODING 216
SWIDTH 609 0
DWIDTH 5 0
BBX 5 7 0 -1
BITMAP
0100
1500
5A00
4880
5440
2940
1000
ENDCHAR
STARTCHAR Ugrave
ENCODING 217
SWIDTH 571 0
DWIDTH 5 0
BBX 5 6 0 0
BITMAP
0400
4100
4140
4040
4180
2940
ENDCHAR
STARTCHAR Uacute
ENCODING 218
SWIDTH 571 0
DWIDTH 5 0
BBX 5 6 0 0
BITMAP
0400
4100
4140
4040
4180
2940
ENDCHAR
STARTCHAR Ucircumflex
ENCODING 219
SWIDTH 571 0
DWIDTH 5 0
BBX 5 8 0 0
BITMAP
0400
1A00
0000
4100
4140
4040
4180
2940
ENDCHAR
STARTCHAR Udieresis
ENCODING 220
SWIDTH 571 0
DWIDTH 5 0
BBX 5 6 0 0
BITMAP
1500
4100
4140
4040
4180
2940
ENDCHAR
STARTCHAR Yacute
ENCODING 221
SWIDTH 403 0
DWIDTH 4 0
BBX 4 8 0 0
BITMAP
04
00
41
55
18
08
04
14
ENDCHAR
STARTCHAR Thorn
ENCODING 222
SWIDTH 497 0
DWIDTH 4 0
BBX 5 7 0 -1
BITMAP
4000
8000
4000
6900
4140
6A00
4000
ENDCHAR
STARTCHAR germandbls
ENCODING 223
SWIDTH 590 0
DWIDTH 5 0
BBX 5 8 0 -1
BITMAP
1000
9800
8500
9900
4140
4080
5540
5000
ENDCHAR
STARTCHAR agrave
ENCODING 224
SWIDTH 505 0
DWIDTH 5 0
BBX 5 6 0 0
BITMAP
1400
1400
0500
6600
4140
6A00
ENDCHAR
STARTCHAR aacute
ENCODING 225
SWIDTH 505 0
DWIDTH 5 0
BBX 5 6 0 0
BITMAP
0400
1400
0500
6600
4140
6A00
ENDCHAR
STARTCHAR acircumflex
ENCODING 226
SWIDTH 505 0
DWIDTH 5 0
BBX 5 7 0 0
BITMAP
0400
1900
1400
0500
6600
4140
6A00
ENDCHAR
STARTCHAR atilde
ENCODING 227
SWIDTH 505 0
DWIDTH 5 0
BBX 5 6 0 0
BITMAP
5500
1400
0500
6600
4140
6A00
ENDCHAR
STARTCHAR adieresis
ENCODING 228
SWIDTH 505 0
DWIDTH 5 0
BBX 5 6 0 0
BITMAP
1500
1400
0500
6600
4140
6A00
ENDCHAR
STARTCHAR aring
ENCODING 229
SWIDTH 505 0
DWIDTH 5 0
BBX 5 6 0 0
BITMAP
1400
1800
0500
6600
4140
6A00
ENDCHAR
STARTCHAR ae
ENCODING 230
SWIDTH 881 0
DWIDTH 8 0
BBX 8 5 0 0
BITMAP
1410
0544
6754
4140
6A95
ENDCHAR
STARTCHAR ccedilla
ENCODING 231
SWIDTH 449 0
DWIDTH 4 0
BBX 4 7 0 -3
BITMAP
58
80
80
65
10
05
14
ENDCHAR
STARTCHAR egrave
ENCODING 232
SWIDTH 515 0
DWIDTH 5 0
BBX 4 6 0 0
BITMAP
14
14
45
98
40
29
ENDCHAR
STARTCHAR eacute
ENCODING 233
SWIDTH 515 0
DWIDTH 5 0
BBX 4 6 0 0
BITMAP
14
24
45
98
40
29
ENDCHAR
STARTCHAR ecircumflex
ENCODING 234
SWIDTH 515 0
DWIDTH 5 0
BBX 4 7 0 0
BITMAP
04
19
24
45
98
40
29
ENDCHAR
STARTCHAR edieresis
ENCODING 235
SWIDTH 515 0
DWIDTH 5 0
BBX 4 6 0 0
BITMAP
24
14
45
98
40
29
ENDCHAR
STARTCHAR igrave
ENCODING 236
SWIDTH 174 0
DWIDTH 2 0
BBX 2 6 0 0
BITMAP
40
40
40
40
50
50
ENDCHAR
STARTCHAR iacute
ENCODING 237
SWIDTH 174 0
DWIDTH 2 0
BBX 2 6 0 0
BITMAP
40
40
40
40
50
50
ENDCHAR
STARTCHAR icircumflex
ENCODING 238
SWIDTH 174 0
DWIDTH 2 0
BBX 2 7 0 0
BITMAP
40
A0
00
40
40
50
50
ENDCHAR
STARTCHAR idieresis
ENCODING 239
SWIDTH 174 0
DWIDTH 2 0
BBX 3 5 -1 0
BITMAP
54
10
10
14
14
ENDCHAR
STARTCHAR eth
ENCODING 240
SWIDTH 407 0
DWIDTH 4 0
BBX 4 5 0 0
BITMAP
50
2D
19
41
59
ENDCHAR
STARTCHAR ntilde
ENCODING 241
SWIDTH 459 0
DWIDTH 4 0
BBX 4 6 0 0
BITMAP
54
00
68
82
82
42
ENDCHAR
STARTCHAR ograve
ENCODING 242
SWIDTH 487 0
DWIDTH 4 0
BBX 4 5 0 0
BITMAP
04
29
41
42
69
ENDCHAR
STARTCHAR oacute
ENCODING 243
SWIDTH 487 0
DWIDTH 4 0
BBX 4 6 0 0
BITMAP
04
10
29
41
42
69
ENDCHAR
STARTCHAR ocircumflex
ENCODING 244
SWIDTH 487 0
DWIDTH 4 0
BBX 4 6 0 0
BITMAP
04
28
2A
41
42
69
ENDCHAR
STARTCHAR otilde
ENCODING 245
SWIDTH 487 0
DWIDTH 4 0
BBX 4 5 0 0
BITMAP
15
69
41
42
69
ENDCHAR
STARTCHAR odieresis
ENCODING 246
SWIDTH 487 0
DWIDTH 4 0
BBX 4 5 0 0
BITMAP
25
29
41
42
69
ENDCHAR
STARTCHAR divide
ENCODING 247
SWIDTH 335 0
DWIDTH 3 0
BBX 3 1 0 2
BITMAP
64
ENDCHAR
STARTCHAR oslash
ENCODING 248
SWIDTH 487 0
DWIDTH 4 0
BBX 4 4 0 0
BITMAP
19
4A
62
69
ENDCHAR
STARTCHAR ugrave
ENCODING 249
SWIDTH 501 0
DWIDTH 5 0
BBX 5 6 0 0
BITMAP
1000
0000
4100
4200
4200
2940
ENDCHAR
STARTCHAR uacute
ENCODING 250
SWIDTH 501 0
DWIDTH 5 0
BBX 5 6 0 0
BITMAP
0400
1000
4100
4200
4200
2940
ENDCHAR
STARTCHAR ucircumflex
ENCODING 251
SWIDTH 501 0
DWIDTH 5 0
BBX 5 7 0 0
BITMAP
0400
1900
0000
4100
4200
4200
2940
ENDCHAR
STARTCHAR udieresis
ENCODING 252
SWIDTH 501 0
DWIDTH 5 0
BBX 5 6 0 0
BITMAP
1400
0000
4100
4200
4200
2940
ENDCHAR
STARTCHAR yacute
ENCODING 253
SWIDTH 487 0
DWIDTH 4 0
BBX 5 11 0 -5
BITMAP
1400
1000
4100
4100
4200
1940
0140
0140
4100
6600
0400
ENDCHAR
STARTCHAR thorn
ENCODING 254
SWIDTH 520 0
DWIDTH 5 0
BBX 5 7 0 -2
BITMAP
4000
4400
9540
9140
9900
8000
4000
ENDCHAR
STARTCHAR ydieresis
ENCODING 255
SWIDTH 487 0
DWIDTH 4 0
BBX 5 11 0 -5
BITMAP
1400
0000
4100
4100
4200
1940
0140
0140
4100
6600
0400
ENDCHAR
STARTCHAR Amacron
ENCODING 256
SWIDTH 562 0
DWIDTH 5 0
BBX 5 8 0 0
BITMAP
1900
1500
4100
4040
4080
9580
4080
4080
ENDCHAR
STARTCHAR amacron
ENCODING 257
SWIDTH 505 0
DWIDTH 5 0
BBX 5 6 0 0
BITMAP
1800
1400
0500
6600
4140
6A00
ENDCHAR
STARTCHAR Abreve
ENCODING 258
SWIDTH 562 0
DWIDTH 5 0
BBX 5 9 0 0
BITMAP
0100
0400
1500
4100
4040
4080
9580
4080
4080
ENDCHAR
STARTCHAR abreve
ENCODING 259
SWIDTH 505 0
DWIDTH 5 0
BBX 5 6 0 0
BITMAP
0400
1800
0500
6600
4140
6A00
ENDCHAR
STARTCHAR Aogonek
ENCODING 260
SWIDTH 562 0
DWIDTH 5 0
BBX 5 9 0 -2
BITMAP
1500
4100
4040
4080
9580
4080
4080
0200
0040
ENDCHAR
STARTCHAR aogonek
ENCODING 261
SWIDTH 505 0
DWIDTH 5 0
BBX 5 6 0 -1
BITMAP
1400
0500
6600
4140
6A00
0500
ENDCHAR
STARTCHAR Cacute
ENCODING 262
SWIDTH 515 0
DWIDTH 5 0
BBX 4 7 0 0
BITMAP
04
19
10
40
40
40
6A
ENDCHAR
STARTCHAR cacute
ENCODING 263
SWIDTH 449 0
DWIDTH 4 0
BBX 4 6 0 0
BITMAP
04
00
58
80
80
65
ENDCHAR
STARTCHAR Ccircumflex
ENCODING 264
SWIDTH 515 0
DWIDTH 5 0
BBX 4 8 0 0
BITMAP
04
19
19
10
40
40
40
6A
ENDCHAR
STARTCHAR ccircumflex
ENCODING 265
SWIDTH 449 0
DWIDTH 4 0
BBX 4 7 0 0
BITMAP
04
28
00
58
80
80
65
ENDCHAR
STARTCHAR Cdotaccent
ENCODING 266
SWIDTH 515 0
DWIDTH 5 0
BBX 4 7 0 0
BITMAP
04
09
10
40
40
40
6A
ENDCHAR
STARTCHAR cdotaccent
ENCODING 267
SWIDTH 449 0
DWIDTH 4 0
BBX 4 5 0 0
BITMAP
10
58
80
80
65
ENDCHAR
STARTCHAR Ccaron
ENCODING 268
SWIDTH 515 0
DWIDTH 5 0
BBX 4 8 0 0
BITMAP
01
05
09
10
40
40
40
6A
ENDCHAR
STARTCHAR ccaron
ENCODING 269
SWIDTH 449 0
DWIDTH 4 0
BBX 4 6 0 0
BITMAP
14
14
58
80
80
65
ENDCHAR
STARTCHAR Dcaron
ENCODING 270
SWIDTH 741 0
DWIDTH 7 0
BBX 7 7 0 0
BITMAP
0440
6B00
0590
0120
0104
0214
0690
ENDCHAR
STARTCHAR dcaron
ENCODING 271
SWIDTH 582 0
DWIDTH 5 0
BBX 5 7 0 0
BITMAP
0140
0240
0240
6A40
8240
8240
6840
ENDCHAR
STARTCHAR Dcroat
ENCODING 272
SWIDTH 741 0
DWIDTH 7 0
BBX 7 6 0 0
BITMAP
6900
0590
0120
0A04
0214
0690
ENDCHAR
STARTCHAR dcroat
ENCODING 273
SWIDTH 524 0
DWIDTH 5 0
BBX 5 7 0 0
BITMAP
0100
0640
0640
6A40
8240
8240
6840
ENDCHAR
STARTCHAR Emacron
ENCODING 274
SWIDTH 524 0
DWIDTH 5 0
BBX 4 7 0 0
BITMAP
19
65
80
95
80
40
6A
ENDCHAR
STARTCHAR emacron
ENCODING 275
SWIDTH 515 0
DWIDTH 5 0
BBX 4 6 0 0
BITMAP
19
14
45
98
40
29
ENDCHAR
STARTCHAR Ebreve
ENCODING 276
SWIDTH 524 0
DWIDTH 5 0
BBX 4 8 0 0
BITMAP
04
04
65
80
95
80
40
6A
ENDCHAR
STARTCHAR ebreve
ENCODING 277
SWIDTH 515 0
DWIDTH 5 0
BBX 4 6 0 0
BITMAP
04
14
45
98
40
29
ENDCHAR
STARTCHAR Edotaccent
ENCODING 278
SWIDTH 524 0
DWIDTH 5 0
BBX 4 7 0 0
BITMAP
04
65
80
95
80
40
6A
ENDCHAR
STARTCHAR edotaccent
ENCODING 279
SWIDTH 515 0
DWIDTH 5 0
BBX 4 6 0 0
BITMAP
10
14
45
98
40
29
ENDCHAR
STARTCHAR Eogonek
ENCODING 280
SWIDTH 524 0
DWIDTH 5 0
BBX 4 8 0 -2
BITMAP
65
80
95
80
40
6A
04
01
ENDCHAR
STARTCHAR eogonek
ENCODING 281
SWIDTH 515 0
DWIDTH 5 0
BBX 4 7 0 -2
BITMAP
14
45
98
40
29
08
01
ENDCHAR
STARTCHAR Ecaron
ENCODING 282
SWIDTH 524 0
DWIDTH 5 0
BBX 4 7 0 0
BITMAP
11
6D
80
95
80
40
6A
ENDCHAR
STARTCHAR ecaron
ENCODING 283
SWIDTH 515 0
DWIDTH 5 0
BBX 4 7 0 0
BITMAP
11
04
14
45
98
40
29
ENDCHAR
STARTCHAR Gcircumflex
ENCODING 284
SWIDTH 571 0
DWIDTH 5 0
BBX 5 9 0 -1
BITMAP
0100
0640
0000
0540
1000
4540
4080
6580
0040
ENDCHAR
STARTCHAR gcircumflex
ENCODING 285
SWIDTH 366 0
DWIDTH 3 0
BBX 5 12 -1 -5
BITMAP
0400
0A00
0000
0500
1100
2200
1A40
0140
0140
4140
6600
0500
ENDCHAR
STARTCHAR Gbreve
ENCODING 286
SWIDTH 571 0
DWIDTH 5 0
BBX 5 7 0 -1
BITMAP
0100
0A40
1000
4540
4080
6580
0040
ENDCHAR
STARTCHAR gbreve
ENCODING 287
SWIDTH 366 0
DWIDTH 3 0
BBX 5 10 -1 -5
BITMAP
0100
0900
1100
2200
1A40
0140
0140
4140
6600
0500
ENDCHAR
STARTCHAR Gdotaccent
ENCODING 288
SWIDTH 571 0
DWIDTH 5 0
BBX 5 7 0 -1
BITMAP
0100
0540
1000
4540
4080
6580
0040
ENDCHAR
STARTCHAR gdotaccent
ENCODING 289
SWIDTH 366 0
DWIDTH 3 0
BBX 5 10 -1 -5
BITMAP
0400
0500
1100
2200
1A40
0140
0140
4140
6600
0500
ENDCHAR
STARTCHAR Gcommaaccent
ENCODING 290
SWIDTH 571 0
DWIDTH 5 0
BBX 5 8 0 -3
BITMAP
0540
1000
4540
4080
6580
0040
0800
0400
ENDCHAR
STARTCHAR gcommaaccent
ENCODING 291
SWIDTH 366 0
DWIDTH 3 0
BBX 5 13 -1 -5
BITMAP
0400
0800
0400
0000
0500
1100
2200
1A40
0140
0140
4140
6600
0500
ENDCHAR
STARTCHAR Hcircumflex
ENCODING 292
SWIDTH 524 0
DWIDTH 5 0
BBX 5 9 0 0
BITMAP
0400
1900
0000
4100
4100
4600
A540
5140
4040
ENDCHAR
STARTCHAR hcircumflex
ENCODING 293
SWIDTH 427 0
DWIDTH 4 0
BBX 4 8 0 0
BITMAP
04
28
80
80
A8
41
41
41
ENDCHAR
STARTCHAR hbar
ENCODING 295
SWIDTH 427 0
DWIDTH 4 0
BBX 5 6 -1 0
BITMAP
1000
6400
2A00
1040
1040
1040
ENDCHAR
STARTCHAR Itilde
ENCODING 296
SWIDTH 167 0
DWIDTH 2 0
BBX 3 6 -1 0
BITMAP
54
10
10
10
14
04
ENDCHAR
STARTCHAR itilde
ENCODING 297
SWIDTH 174 0
DWIDTH 2 0
BBX 4 6 -1 0
BITMAP
55
00
10
10
14
14
ENDCHAR
STARTCHAR imacron
ENCODING 299
SWIDTH 174 0
DWIDTH 2 0
BBX 2 6 0 0
BITMAP
50
00
40
40
50
50
ENDCHAR
STARTCHAR Ibreve
ENCODING 300
SWIDTH 167 0
DWIDTH 2 0
BBX 2 7 0 0
BITMAP
10
40
40
40
40
50
10
ENDCHAR
STARTCHAR ibreve
ENCODING 301
SWIDTH 174 0
DWIDTH 2 0
BBX 2 6 0 0
BITMAP
10
40
40
40
50
50
ENDCHAR
STARTCHAR Iogonek
ENCODING 302
SWIDTH 167 0
DWIDTH 2 0
BBX 2 7 0 -2
BITMAP
40
40
40
50
50
80
10
ENDCHAR
STARTCHAR iogonek
ENCODING 303
SWIDTH 174 0
DWIDTH 2 0
BBX 2 8 0 -2
BITMAP
40
00
40
40
50
50
80
50
ENDCHAR
STARTCHAR Idotaccent
ENCODING 304
SWIDTH 167 0
DWIDTH 2 0
BBX 2 7 0 0
BITMAP
40
00
40
40
40
50
10
ENDCHAR
STARTCHAR dotlessi
ENCODING 305
SWIDTH 174 0
DWIDTH 2 0
BBX 2 4 0 0
BITMAP
40
40
50
50
ENDCHAR
STARTCHAR Jcircumflex
ENCODING 308
SWIDTH 439 0
DWIDTH 4 0
BBX 4 9 0 0
BITMAP
01
0A
00
01
02
02
41
11
19
ENDCHAR
STARTCHAR jcircumflex
ENCODING 309
SWIDTH 200 0
DWIDTH 2 0
BBX 3 11 -1 -4
BITMAP
14
28
00
00
14
08
08
08
48
84
28
ENDCHAR
STARTCHAR Kcommaaccent
ENCODING 310
SWIDTH 468 0
DWIDTH 4 0
BBX 4 8 0 -3
BITMAP
54
60
90
54
46
00
14
14
ENDCHAR
STARTCHAR kcommaaccent
ENCODING 311
SWIDTH 403 0
DWIDTH 4 0
BBX 4 8 0 -3
BITMAP
40
44
90
50
59
00
10
10
ENDCHAR
STARTCHAR Lacute
ENCODING 313
SWIDTH 346 0
DWIDTH 3 0
BBX 3 7 0 0
BITMAP
14
10
40
80
80
40
64
ENDCHAR
STARTCHAR lacute
ENCODING 314
SWIDTH 120 0
DWIDTH 1 0
BBX 1 7 0 0
BITMAP
40
00
40
80
80
80
40
ENDCHAR
STARTCHAR Lcommaaccent
ENCODING 315
SWIDTH 346 0
DWIDTH 3 0
BBX 3 8 0 -3
BITMAP
40
80
80
40
64
00
20
10
ENDCHAR
STARTCHAR lcommaaccent
ENCODING 316
SWIDTH 120 0
DWIDTH 1 0
BBX 1 8 0 -3
BITMAP
40
80
80
80
40
00
80
40
ENDCHAR
STARTCHAR Lcaron
ENCODING 317
SWIDTH 346 0
DWIDTH 3 0
BBX 3 7 0 0
BITMAP
10
10
40
80
80
40
64
ENDCHAR
STARTCHAR lcaron
ENCODING 318
SWIDTH 222 0
DWIDTH 2 0
BBX 2 7 0 0
BITMAP
10
20
50
80
80
80
40
ENDCHAR
STARTCHAR Ldot
ENCODING 319
SWIDTH 346 0
DWIDTH 3 0
BBX 3 5 0 0
BITMAP
40
80
90
50
64
ENDCHAR
STARTCHAR ldot
ENCODING 320
SWIDTH 333 0
DWIDTH 3 0
BBX 3 5 0 0
BITMAP
40
80
94
84
40
ENDCHAR
STARTCHAR Lslash
ENCODING 321
SWIDTH 346 0
DWIDTH 3 0
BBX 3 5 0 0
BITMAP
10
50
50
80
28
ENDCHAR
STARTCHAR lslash
ENCODING 322
SWIDTH 120 0
DWIDTH 1 0
BBX 3 5 -1 0
BITMAP
20
24
60
20
10
ENDCHAR
STARTCHAR Nacute
ENCODING 323
SWIDTH 609 0
DWIDTH 5 0
BBX 6 6 0 0
BITMAP
0400
4040
8080
9040
5450
8640
ENDCHAR
STARTCHAR nacute
ENCODING 324
SWIDTH 459 0
DWIDTH 4 0
BBX 4 6 0 0
BITMAP
14
10
68
82
82
42
ENDCHAR
STARTCHAR Ncommaaccent
ENCODING 325
SWIDTH 609 0
DWIDTH 5 0
BBX 6 8 0 -3
BITMAP
4040
8080
9040
5450
8640
0000
0800
0400
ENDCHAR
STARTCHAR ncommaaccent
ENCODING 326
SWIDTH 459 0
DWIDTH 4 0
BBX 4 7 0 -3
BITMAP
68
82
82
42
00
14
14
ENDCHAR
STARTCHAR Ncaron
ENCODING 327
SWIDTH 609 0
DWIDTH 5 0
BBX 6 7 0 0
BITMAP
0500
0500
4040
8080
9040
5450
8640
ENDCHAR
STARTCHAR ncaron
ENCODING 328
SWIDTH 459 0
DWIDTH 4 0
BBX 4 6 0 0
BITMAP
14
04
68
82
82
42
ENDCHAR
STARTCHAR napostrophe
ENCODING 329
SWIDTH 459 0
DWIDTH 4 0
BBX 4 6 0 0
BITMAP
10
50
68
82
82
42
ENDCHAR
STARTCHAR Omacron
ENCODING 332
SWIDTH 609 0
DWIDTH 5 0
BBX 5 6 0 0
BITMAP
1900
1400
5600
4080
4040
2540
ENDCHAR
STARTCHAR omacron
ENCODING 333
SWIDTH 487 0
DWIDTH 4 0
BBX 4 5 0 0
BITMAP
18
29
41
42
69
ENDCHAR
STARTCHAR Obreve
ENCODING 334
SWIDTH 609 0
DWIDTH 5 0
BBX 5 6 0 0
BITMAP
0100
1400
5600
4080
4040
2540
ENDCHAR
STARTCHAR obreve
ENCODING 335
SWIDTH 487 0
DWIDTH 4 0
BBX 4 6 0 0
BITMAP
04
10
29
41
42
69
ENDCHAR
STARTCHAR Ohungarumlaut
ENCODING 336
SWIDTH 609 0
DWIDTH 5 0
BBX 5 6 0 0
BITMAP
1500
1400
5600
4080
4040
2540
ENDCHAR
STARTCHAR ohungarumlaut
ENCODING 337
SWIDTH 487 0
DWIDTH 4 0
BBX 4 5 0 0
BITMAP
28
29
41
42
69
ENDCHAR
STARTCHAR OE
ENCODING 338
SWIDTH 848 0
DWIDTH 8 0
BBX 7 5 0 0
BITMAP
1454
5700
4254
4200
2A54
ENDCHAR
STARTCHAR oe
ENCODING 339
SWIDTH 875 0
DWIDTH 8 0
BBX 8 6 0 -1
BITMAP
0010
1954
4214
4250
6995
0014
ENDCHAR
STARTCHAR Racute
ENCODING 340
SWIDTH 579 0
DWIDTH 5 0
BBX 5 8 0 -1
BITMAP
0500
5900
4140
2640
2400
1800
1240
0040
ENDCHAR
STARTCHAR racute
ENCODING 341
SWIDTH 346 0
DWIDTH 3 0
BBX 3 6 0 0
BITMAP
10
10
98
80
80
50
ENDCHAR
STARTCHAR Rcommaaccent
ENCODING 342
SWIDTH 579 0
DWIDTH 5 0
BBX 5 9 0 -3
BITMAP
5900
4140
2640
2400
1800
1240
0040
0800
0400
ENDCHAR
STARTCHAR rcommaaccent
ENCODING 343
SWIDTH 346 0
DWIDTH 3 0
BBX 3 7 0 -3
BITMAP
98
80
80
50
00
20
10
ENDCHAR
STARTCHAR Rcaron
ENCODING 344
SWIDTH 579 0
DWIDTH 5 0
BBX 5 9 0 -1
BITMAP
0100
0400
5900
4140
2640
2400
1800
1240
0040
ENDCHAR
STARTCHAR rcaron
ENCODING 345
SWIDTH 346 0
DWIDTH 3 0
BBX 3 6 0 0
BITMAP
04
10
98
80
80
50
ENDCHAR
STARTCHAR Sacute
ENCODING 346
SWIDTH 627 0
DWIDTH 6 0
BBX 6 7 0 0
BITMAP
0500
0900
1040
1400
0240
8050
1580
ENDCHAR
STARTCHAR sacute
ENCODING 347
SWIDTH 514 0
DWIDTH 5 0
BBX 5 6 0 0
BITMAP
0400
0000
5800
5400
0240
6600
ENDCHAR
STARTCHAR Scircumflex
ENCODING 348
SWIDTH 627 0
DWIDTH 6 0
BBX 6 8 0 0
BITMAP
0400
0A00
0500
1040
1400
0240
8050
1580
ENDCHAR
STARTCHAR scircumflex
ENCODING 349
SWIDTH 514 0
DWIDTH 5 0
BBX 5 7 0 0
BITMAP
0400
1900
0000
5800
5400
0240
6600
ENDCHAR
STARTCHAR Scedilla
ENCODING 350
SWIDTH 627 0
DWIDTH 6 0
BBX 6 9 0 -3
BITMAP
0500
1040
1400
0240
8050
1580
0400
0600
0500
ENDCHAR
STARTCHAR scedilla
ENCODING 351
SWIDTH 514 0
DWIDTH 5 0
BBX 5 7 0 -3
BITMAP
5800
5400
0240
6600
1000
0500
1500
ENDCHAR
STARTCHAR Scaron
ENCODING 352
SWIDTH 627 0
DWIDTH 6 0
BBX 6 7 0 0
BITMAP
0500
0A00
1040
1400
0240
8050
1580
ENDCHAR
STARTCHAR scaron
ENCODING 353
SWIDTH 514 0
DWIDTH 5 0
BBX 5 6 0 0
BITMAP
1100
0400
5800
5400
0240
6600
ENDCHAR
STARTCHAR Tcommaaccent
ENCODING 354
SWIDTH 581 0
DWIDTH 5 0
BBX 6 8 0 -3
BITMAP
5A50
0100
0100
0200
0200
0000
0200
0100
ENDCHAR
STARTCHAR tcommaaccent
ENCODING 355
SWIDTH 328 0
DWIDTH 3 0
BBX 3 9 0 -3
BITMAP
20
20
64
20
20
10
00
20
10
ENDCHAR
STARTCHAR Tcaron
ENCODING 356
SWIDTH 581 0
DWIDTH 5 0
BBX 6 7 0 0
BITMAP
0100
0400
5A50
0100
0100
0200
0200
ENDCHAR
STARTCHAR tcaron
ENCODING 357
SWIDTH 431 0
DWIDTH 4 0
BBX 4 7 0 0
BITMAP
01
22
21
64
20
20
10
ENDCHAR
STARTCHAR Utilde
ENCODING 360
SWIDTH 571 0
DWIDTH 5 0
BBX 5 6 0 0
BITMAP
1500
4100
4140
4040
4180
2940
ENDCHAR
STARTCHAR utilde
ENCODING 361
SWIDTH 501 0
DWIDTH 5 0
BBX 5 6 0 0
BITMAP
1500
0000
4100
4200
4200
2940
ENDCHAR
STARTCHAR Umacron
ENCODING 362
SWIDTH 571 0
DWIDTH 5 0
BBX 5 6 0 0
BITMAP
1900
4100
4140
4040
4180
2940
ENDCHAR
STARTCHAR umacron
ENCODING 363
SWIDTH 501 0
DWIDTH 5 0
BBX 5 6 0 0
BITMAP
2800
0000
4100
4200
4200
2940
ENDCHAR
STARTCHAR Ubreve
ENCODING 364
SWIDTH 571 0
DWIDTH 5 0
BBX 5 6 0 0
BITMAP
0100
4500
4140
4040
4180
2940
ENDCHAR
STARTCHAR ubreve
ENCODING 365
SWIDTH 501 0
DWIDTH 5 0
BBX 5 6 0 0
BITMAP
0400
1400
4100
4200
4200
2940
ENDCHAR
STARTCHAR Uring
ENCODING 366
SWIDTH 571 0
DWIDTH 5 0
BBX 5 6 0 0
BITMAP
1500
4500
4140
4040
4180
2940
ENDCHAR
STARTCHAR uring
ENCODING 367
SWIDTH 501 0
DWIDTH 5 0
BBX 5 5 0 0
BITMAP
1400
4500
4200
4200
2940
ENDCHAR
STARTCHAR Uhungarumlaut
ENCODING 368
SWIDTH 571 0
DWIDTH 5 0
BBX 5 6 0 0
BITMAP
1500
4100
4140
4040
4180
2940
ENDCHAR
STARTCHAR uhungarumlaut
ENCODING 369
SWIDTH 501 0
DWIDTH 5 0
BBX 5 6 0 0
BITMAP
1500
0000
4100
4200
4200
2940
ENDCHAR
STARTCHAR Uogonek
ENCODING 370
SWIDTH 571 0
DWIDTH 5 0
BBX 5 7 0 -2
BITMAP
4000
4140
4040
4080
2680
0540
0040
ENDCHAR
STARTCHAR uogonek
ENCODING 371
SWIDTH 501 0
DWIDTH 5 0
BBX 5 5 0 -1
BITMAP
4100
4200
4600
1540
0200
ENDCHAR
STARTCHAR Wcircumflex
ENCODING 372
SWIDTH 703 0
DWIDTH 6 0
BBX 6 8 0 0
BITMAP
0100
0640
0000
0000
8020
8420
8910
6590
ENDCHAR
STARTCHAR wcircumflex
ENCODING 373
SWIDTH 656 0
DWIDTH 6 0
BBX 6 7 0 0
BITMAP
0100
0A00
0000
4000
4510
4520
6A90
ENDCHAR
STARTCHAR Ycircumflex
ENCODING 374
SWIDTH 403 0
DWIDTH 4 0
BBX 4 8 0 0
BITMAP
10
28
41
55
18
08
04
14
ENDCHAR
STARTCHAR ycircumflex
ENCODING 375
SWIDTH 487 0
DWIDTH 4 0
BBX 5 12 0 -5
BITMAP
0400
1900
0000
4100
4100
4200
1940
0140
0140
4100
6600
0400
ENDCHAR
STARTCHAR Ydieresis
ENCODING 376
SWIDTH 403 0
DWIDTH 4 0
BBX 4 7 0 0
BITMAP
18
41
55
18
08
04
14
ENDCHAR
STARTCHAR Zacute
ENCODING 377
SWIDTH 571 0
DWIDTH 5 0
BBX 5 8 0 0
BITMAP
0400
0400
5400
0100
0100
1A40
0400
1A80
ENDCHAR
STARTCHAR zacute
ENCODING 378
SWIDTH 459 0
DWIDTH 4 0
BBX 4 6 0 0
BITMAP
14
64
04
58
20
29
ENDCHAR
STARTCHAR Zdotaccent
ENCODING 379
SWIDTH 571 0
DWIDTH 5 0
BBX 5 7 0 0
BITMAP
0400
5400
0100
0100
1A40
0400
1A80
ENDCHAR
STARTCHAR zdotaccent
ENCODING 380
SWIDTH 459 0
DWIDTH 4 0
BBX 4 6 0 0
BITMAP
04
54
04
58
20
29
ENDCHAR
STARTCHAR Zcaron
ENCODING 381
SWIDTH 571 0
DWIDTH 5 0
BBX 5 8 0 0
BITMAP
1100
0400
5400
0100
0100
1A40
0400
1A80
ENDCHAR
STARTCHAR zcaron
ENCODING 382
SWIDTH 459 0
DWIDTH 4 0
BBX 4 7 0 0
BITMAP
04
14
54
04
58
20
29
ENDCHAR
STARTCHAR florin
ENCODING 402
SWIDTH 376 0
DWIDTH 3 0
BBX 5 9 -1 -2
BITMAP
0100
0980
0400
0400
1900
0800
0800
0400
5400
ENDCHAR
STARTCHAR AEacute
ENCODING 508
SWIDTH 960 0
DWIDTH 9 0
BBX 9 8 0 0
BITMAP
004000
154000
416500
40C000
40D500
958000
408000
40AA40
ENDCHAR
STARTCHAR aeacute
ENCODING 509
SWIDTH 881 0
DWIDTH 8 0
BBX 8 6 0 0
BITMAP
0040
1510
0544
6754
4140
6A95
ENDCHAR
STARTCHAR Oslashacute
ENCODING 510
SWIDTH 609 0
DWIDTH 5 0
BBX 5 7 0 -1
BITMAP
0800
1500
5600
4480
4440
2940
1000
ENDCHAR
STARTCHAR oslashacute
ENCODING 511
SWIDTH 487 0
DWIDTH 4 0
BBX 4 5 0 0
BITMAP
14
19
46
4A
69
ENDCHAR
STARTCHAR Scommaaccent
ENCODING 536
SWIDTH 627 0
DWIDTH 6 0
BBX 6 9 0 -3
BITMAP
0500
1040
1400
0240
8050
1580
0000
0800
0400
ENDCHAR
STARTCHAR scommaaccent
ENCODING 537
SWIDTH 514 0
DWIDTH 5 0
BBX 5 7 0 -3
BITMAP
5800
5400
0240
6600
0000
0800
0400
ENDCHAR
STARTCHAR circumflex
ENCODING 710
SWIDTH 375 0
DWIDTH 3 0
BBX 2 2 1 5
BITMAP
40
A0
ENDCHAR
STARTCHAR caron
ENCODING 711
SWIDTH 375 0
DWIDTH 3 0
BBX 2 2 1 4
BITMAP
10
40
ENDCHAR
STARTCHAR breve
ENCODING 728
SWIDTH 224 0
DWIDTH 2 0
BBX 2 2 0 3
BITMAP
10
50
ENDCHAR
STARTCHAR dotaccent
ENCODING 729
SWIDTH 152 0
DWIDTH 1 0
BBX 1 1 0 4
BITMAP
40
ENDCHAR
STARTCHAR ring
ENCODING 730
SWIDTH 333 0
DWIDTH 3 0
BBX 2 2 1 3
BITMAP
50
40
ENDCHAR
STARTCHAR ogonek
ENCODING 731
SWIDTH 254 0
DWIDTH 2 0
BBX 2 2 0 -2
BITMAP
80
10
ENDCHAR
STARTCHAR tilde
ENCODING 732
SWIDTH 402 0
DWIDTH 4 0
BBX 3 1 0 4
BITMAP
54
ENDCHAR
STARTCHAR hungarumlaut
ENCODING 733
SWIDTH 264 0
DWIDTH 2 0
BBX 2 1 0 4
BITMAP
50
ENDCHAR
STARTCHAR Wgrave
ENCODING 7808
SWIDTH 703 0
DWIDTH 6 0
BBX 6 6 0 0
BITMAP
0100
0000
8020
8420
8910
6590
ENDCHAR
STARTCHAR wgrave
ENCODING 7809
SWIDTH 656 0
DWIDTH 6 0
BBX 6 5 0 0
BITMAP
0500
4000
4510
4520
6A90
ENDCHAR
STARTCHAR Wacute
ENCODING 7810
SWIDTH 703 0
DWIDTH 6 0
BBX 6 6 0 0
BITMAP
0500
0400
8020
8420
8910
6590
ENDCHAR
STARTCHAR wacute
ENCODING 7811
SWIDTH 656 0
DWIDTH 6 0
BBX 6 6 0 0
BITMAP
0500
0400
4000
4510
4520
6A90
ENDCHAR
STARTCHAR Wdieresis
ENCODING 7812
SWIDTH 703 0
DWIDTH 6 0
BBX 6 6 0 0
BITMAP
0900
0000
8020
8420
8910
6590
ENDCHAR
STARTCHAR wdieresis
ENCODING 7813
SWIDTH 656 0
DWIDTH 6 0
BBX 6 5 0 0
BITMAP
0500
4000
4510
4520
6A90
ENDCHAR
STARTCHAR Ygrave
ENCODING 7922
SWIDTH 403 0
DWIDTH 4 0
BBX 4 7 0 0
BITMAP
14
41
55
18
08
04
14
ENDCHAR
STARTCHAR ygrave
ENCODING 7923
SWIDTH 487 0
DWIDTH 4 0
BBX 5 10 0 -5
BITMAP
0400
4100
4100
4200
1940
0140
0140
4100
6600
0400
ENDCHAR
STARTCHAR endash
ENCODING 8211
SWIDTH 287 0
DWIDTH 3 0
BBX 3 1 0 2
BITMAP
64
ENDCHAR
STARTCHAR emdash
ENCODING 8212
SWIDTH 512 0
DWIDTH 5 0
BBX 4 1 0 2
BITMAP
6A
ENDCHAR
STARTCHAR quoteleft
ENCODING 8216
SWIDTH 102 0
DWIDTH 1 0
BBX 1 3 0 4
BITMAP
40
80
40
ENDCHAR
STARTCHAR quoteright
ENCODING 8217
SWIDTH 102 0
DWIDTH 1 0
BBX 1 3 0 4
BITMAP
40
80
40
ENDCHAR
STARTCHAR quotesinglbase
ENCODING 8218
SWIDTH 102 0
DWIDTH 1 0
BBX 1 2 0 0
BITMAP
40
80
ENDCHAR
STARTCHAR quotedblleft
ENCODING 8220
SWIDTH 234 0
DWIDTH 2 0
BBX 2 3 0 4
BITMAP
50
A0
50
ENDCHAR
STARTCHAR quotedblright
ENCODING 8221
SWIDTH 234 0
DWIDTH 2 0
BBX 2 3 0 4
BITMAP
50
A0
50
ENDCHAR
STARTCHAR quotedblbase
ENCODING 8222
SWIDTH 341 0
DWIDTH 3 0
BBX 3 2 0 -1
BITMAP
54
14
ENDCHAR
STARTCHAR dagger
ENCODING 8224
SWIDTH 375 0
DWIDTH 3 0
BBX 3 6 0 0
BITMAP
10
10
68
10
10
10
ENDCHAR
STARTCHAR daggerdbl
ENCODING 8225
SWIDTH 375 0
DWIDTH 3 0
BBX 4 7 0 0
BITMAP
10
20
65
65
65
10
10
ENDCHAR
STARTCHAR bullet
ENCODING 8226
SWIDTH 341 0
DWIDTH 3 0
BBX 2 2 1 1
BITMAP
D0
40
ENDCHAR
STARTCHAR ellipsis
ENCODING 8230
SWIDTH 612 0
DWIDTH 6 0
BBX 5 2 0 0
BITMAP
5440
5980
ENDCHAR
STARTCHAR guilsinglleft
ENCODING 8249
SWIDTH 487 0
DWIDTH 4 0
BBX 4 4 0 0
BITMAP
01
18
50
69
ENDCHAR
STARTCHAR guilsinglright
ENCODING 8250
SWIDTH 403 0
DWIDTH 4 0
BBX 4 4 0 0
BITMAP
64
05
18
50
ENDCHAR
STARTCHAR fraction
ENCODING 8260
SWIDTH 309 0
DWIDTH 3 0
BBX 3 7 0 0
BITMAP
04
04
10
20
10
40
40
ENDCHAR
STARTCHAR Euro
ENCODING 8364
SWIDTH 741 0
DWIDTH 7 0
BBX 6 6 0 0
BITMAP
0150
6A40
0400
6940
1000
0AA0
ENDCHAR
STARTCHAR trademark
ENCODING 8482
SWIDTH 1116 0
DWIDTH 10 0
BBX 10 6 0 0
BITMAP
555010
056850
011A90
011410
021420
021420
ENDCHAR
STARTCHAR minus
ENCODING 8722
SWIDTH 287 0
DWIDTH 3 0
BBX 3 1 0 2
BITMAP
64
ENDCHAR
STARTCHAR commaaccent
ENCODING 63171
SWIDTH 375 0
DWIDTH 3 0
BBX 1 2 1 -3
BITMAP
80
40
ENDCHAR
STARTCHAR fi
ENCODING 64257
SWIDTH 551 0
DWIDTH 5 0
BBX 4 7 0 0
BITMAP
04
26
10
11
6A
22
0A
ENDCHAR
STARTCHAR fl
ENCODING 64258
SWIDTH 723 0
DWIDTH 7 0
BBX 4 7 0 0
BITMAP
04
26
11
11
69
25
09
ENDCHAR
STARTCHAR .notdef
ENCODING -1
SWIDTH 375 0
DWIDTH 3 0
BBX 1 1 0 0
BITMAP
00
ENDCHAR
STARTCHAR .null
ENCODING -1
SWIDTH 0 0
DWIDTH 0 0
BBX 1 1 0 0
BITMAP
00
ENDCHAR
STARTCHAR nonmarkingreturn
ENCODING -1
SWIDTH 375 0
DWIDTH 3 0
BBX 1 1 0 0
BITMAP
00
ENDCHAR
ENDFONT
